HIERARCHY
ROOT Hips
{
	OFFSET 0.000000 0.000000 0.000000 
	CHANNELS 6 Xposition Yposition Zposition Yrotation Zrotation Xrotation 
	JOINT Lumbar
	{
		OFFSET 0.000000 0.000000 0.000000 
		CHANNELS 3 Zrotation Xrotation Yrotation
		JOINT Neck
		{
			OFFSET 0.000000 0.445665 0.000000 
			CHANNELS 3 Zrotation Xrotation Yrotation
			End Site
			{
				OFFSET 0.000000 0.227535 0.000000 
			}
		}
		JOINT RightShoulder
		{
			OFFSET 0.019635 0.377685 0.194865 
			CHANNELS 3 Zrotation Xrotation Yrotation
			JOINT RightElbow
			{
				OFFSET 0.000000 -0.243375 0.000000 
				CHANNELS 2 Zrotation Yrotation
				JOINT RightWrist
				{
					OFFSET 0.000000 -0.264825 0.000000 
					CHANNELS 2 Zrotation Xrotation
					End Site
					{
						OFFSET 0.006600 -0.176220 0.000990 
					}
				}
			}
		}
		JOINT LeftShoulder
		{
			OFFSET 0.019635 0.377685 -0.194865 
			CHANNELS 3 Zrotation Xrotation Yrotation
			JOINT LeftElbow
			{
				OFFSET 0.000000 -0.243375 0.000000 
				CHANNELS 2 Zrotation Yrotation
				JOINT LeftWrist
				{
					OFFSET 0.000000 -0.264825 0.000000 
					CHANNELS 2 Zrotation Xrotation
					End Site
					{
						OFFSET 0.006600 -0.176220 -0.000990 
					}
				}
			}
		}
	}
	JOINT RightHip
	{
		OFFSET 0.052140 -0.069960 0.075570 
		CHANNELS 3 Zrotation Xrotation Yrotation
		JOINT RightKnee
		{
			OFFSET 0.000000 -0.402270 0.000000 
			CHANNELS 1 Zrotation
			JOINT RightAnkle
			{
				OFFSET 0.000000 -0.404085 0.000000 
				CHANNELS 3 Zrotation Xrotation Yrotation
				End Site
				{
					OFFSET 0.204105 -0.089430 0.008415 
				}
			}
		}
	}
	JOINT LeftHip
	{
		OFFSET 0.052140 -0.069960 -0.075570 
		CHANNELS 3 Zrotation Xrotation Yrotation
		JOINT LeftKnee
		{
			OFFSET 0.000000 -0.402270 0.000000 
			CHANNELS 1 Zrotation
			JOINT LeftAnkle
			{
				OFFSET 0.000000 -0.404085 0.000000 
				CHANNELS 3 Zrotation Xrotation Yrotation
				End Site
				{
					OFFSET 0.204105 -0.089430 -0.008415 
				}
			}
		}
	}
}
MOTION
Frames: 30
Frame Time: 0.02
0.48006 -0.36597 -0.00942 -535.31867 -9.18348 -4.67892 17.77574 2.80678 -9.48434 -28.63999 9.42641 -0.8306 -4.84602 -24.89708 30.04649 106.52496 71.85368 14.74809 -5.58107 63.11148 16.92422 -57.36889 97.12861 -80.65808 26.49519 3.75522 87.04006 -15.74267 -10.35498 -95.48784 -8.89165 -4.85923 -3.34006 92.1373 18.12255 0.91432 -96.81848 -8.95778 3.60456 2.64924
0.48007 -0.3658 -0.00778 -535.48299 -9.16602 -4.81906 17.83811 3.07103 -9.7612 -28.8371 9.16818 -0.8306 -5.07931 -23.94991 30.32166 106.02639 72.22966 14.36769 -5.52124 62.88032 17.17406 -57.15339 96.8727 -80.98443 25.85083 3.67508 86.98448 -15.595 -10.3411 -95.40937 -8.89175 -4.84968 -3.33571 92.14544 18.10655 0.7993 -96.87681 -8.9411 3.62033 2.65913
0.48009 -0.36573 -0.00634 -535.63869 -9.16364 -4.96802 17.88923 3.35616 -10.10206 -28.91745 8.77489 -0.8306 -5.09263 -22.87928 30.54814 105.51841 72.67583 13.8332 -5.47504 62.67999 17.59919 -57.16093 96.74716 -80.72126 24.60751 3.6936 86.96375 -15.40605 -10.30487 -95.35213 -8.89538 -4.84106 -3.33276 92.19109 18.08223 0.6508 -96.94286 -8.92465 3.63194 2.66657
0.48011 -0.36563 -0.00484 -535.79819 -9.15175 -5.11046 17.94 3.62625 -10.41142 -29.04889 8.44177 -0.8306 -5.19987 -21.87462 30.79493 105.01317 73.0124 13.40092 -5.43907 62.44953 17.94737 -57.06055 96.58372 -80.74035 23.66354 3.66934 86.92435 -15.24291 -10.28464 -95.28604 -8.89678 -4.8317 -3.32887 92.21618 18.06531 0.52087 -97.00411 -8.90843 3.64557 2.6751
0.4801 -0.36547 -0.00319 -535.96054 -9.15069 -5.26346 18.01336 3.92257 -10.73425 -29.18564 8.10328 -0.8306 -5.3255 -20.81878 31.05085 104.5157 73.67502 12.81804 -5.34889 62.26966 18.27804 -56.97495 96.32799 -80.72955 22.58181 3.64039 86.89619 -15.05096 -10.24056 -95.21608 -8.90066 -4.82339 -3.32606 92.25475 18.0337 0.3776 -97.07099 -8.8906 3.65898 2.68391
0.48016 -0.36545 -0.00192 -536.11391 -9.13134 -5.39637 18.03782 4.16792 -11.043 -29.28328 7.74827 -0.8306 -5.36331 -19.84535 31.27656 104.00047 73.69401 12.51028 -5.36645 61.99914 18.69064 -56.91635 96.29564 -80.6303 21.65411 3.64278 86.85369 -14.90833 -10.24 -95.15936 -8.90036 -4.8133 -3.32148 92.27503 18.0303 0.25385 -97.12777 -8.87628 3.67171 2.69148
0.48046 -0.36581 -0.00163 -536.24537 -9.05122 -5.47409 17.9221 4.27052 -11.29622 -29.31975 7.37554 -0.8306 -5.21321 -19.11199 31.41849 103.42454 71.69104 13.09452 -5.71124 61.46311 19.26648 -56.87958 96.85478 -80.41466 21.29016 3.71226 86.75643 -14.91874 -10.37167 -95.13491 -8.88667 -4.79709 -3.31095 92.2312 18.10886 0.19248 -97.15644 -8.87133 3.68372 2.69626
0.48083 -0.3663 -0.0017 -536.36741 -8.95334 -5.53087 17.75895 4.3204 -11.53242 -29.31807 6.99272 -0.8306 -4.98364 -18.47034 31.53314 102.83353 69.07473 13.94682 -6.15685 60.83926 19.92181 -56.86378 97.63233 -80.12689 21.10478 3.80894 86.64478 -14.9791 -10.54661 -95.12305 -8.86885 -4.77925 -3.29874 92.16862 18.21558 0.15188 -97.17443 -8.86997 3.69508 2.69984
0.48116 -0.36672 -0.00161 -536.4932 -8.86791 -5.59569 17.62272 4.39176 -11.77703 -29.32266 6.61999 -0.8306 -4.79036 -17.79936 31.66857 102.25792 66.88951 14.61745 -6.53194 60.26212 20.55615 -56.83902 98.30736 -79.88085 20.8486 3.88895 86.54408 -15.01183 -10.69745 -95.10477 -8.8536 -4.76287 -3.28781 92.11763 18.30807 0.10124 -97.19614 -8.86721 3.70658 2.70393
0.48154 -0.36722 -0.00153 -536.62183 -8.76467 -5.66708 17.46366 4.47345 -12.02251 -29.37014 6.22126 -0.8306 -4.58666 -17.07151 31.76892 101.64497 64.07611 15.53412 -7.0089 59.65422 21.13787 -56.81946 99.0051 -79.58518 20.5351 3.98873 86.42598 -15.06305 -10.86645 -95.08975 -8.83559 -4.74356 -3.27481 92.05496 18.40659 0.05133 -97.22268 -8.86357 3.71867 2.7081
0.48183 -0.36758 -0.00151 -536.74131 -8.69394 -5.71965 17.34075 4.52198 -12.25948 -29.32035 5.87343 -0.8306 -4.39104 -16.48588 31.93402 101.10752 62.40914 16.00509 -7.30128 59.09275 21.83925 -56.79112 99.70014 -79.37313 20.38164 4.05495 86.34022 -15.08929 -11.00794 -95.07116 -8.82228 -4.72987 -3.26565 92.01169 18.49903 0.00609 -97.23681 -8.86249 3.72934 2.71182
0.48186 -0.36754 -0.00153 -536.84714 -8.7187 -5.72582 17.33158 4.48156 -12.49234 -29.01541 5.6918 -0.8306 -4.21786 -16.26822 32.30569 100.77185 64.1891 15.17486 -7.0263 58.65257 22.90676 -56.7332 100.37983 -79.50178 20.71382 3.99948 86.34733 -15.02462 -11.06497 -95.03518 -8.82322 -4.73277 -3.26798 92.02645 18.57025 -0.03823 -97.21662 -8.86886 3.73704 2.71503
0.4818 -0.36736 -0.00159 -536.94236 -8.7764 -5.71361 17.35996 4.41142 -12.71418 -28.61359 5.55764 -0.83061 -4.05993 -16.19129 32.7397 100.51447 67.11909 13.89036 -6.56874 58.26828 24.08057 -56.66455 101.03879 -79.7053 21.18831 3.91256 86.38724 -14.93496 -11.09246 -94.99585 -8.82899 -4.74127 -3.27415 92.06114 18.63383 -0.07723 -97.18472 -8.87749 3.74322 2.71776
0.48178 -0.36725 -0.00162 -537.03637 -8.81814 -5.70951 17.36979 4.36145 -12.93054 -28.25419 5.38788 -0.83061 -3.90928 -16.05245 33.13159 100.22832 69.43611 12.81558 -6.21551 57.87577 25.16892 -56.60003 101.6784 -79.8137 21.54264 3.85474 86.41198 -14.86349 -11.13229 -94.96091 -8.83239 -4.74674 -3.27824 92.08672 18.69946 -0.11378 -97.15995 -8.88424 3.74961 2.72043
0.48177 -0.36712 -0.00169 -537.15555 -8.86375 -5.70583 17.38458 4.28135 -13.19005 -27.90071 5.27891 -0.83061 -3.69717 -15.90933 33.58089 99.91366 72.11308 11.72884 -5.77312 57.40386 26.41782 -56.54005 102.45261 -80.16655 22.13448 3.73715 86.43759 -14.76543 -11.17849 -94.91446 -8.83638 -4.75417 -3.28366 92.11224 18.77254 -0.16963 -97.12738 -8.89459 3.75799 2.72421
0.48172 -0.367 -0.0017 -537.21985 -8.909 -5.69704 17.3981 4.25784 -13.358 -27.51175 5.05225 -0.83061 -3.61594 -15.80584 33.92556 99.67621 74.32152 10.56491 -5.47493 57.1165 27.35546 -56.46712 102.93189 -80.04231 22.26641 3.73404 86.46906 -14.71548 -11.20349 -94.89082 -8.84035 -4.75891 -3.28729 92.14243 18.82736 -0.18496 -97.10816 -8.89808 3.7619 2.7256
0.48155 -0.36698 -0.00151 -537.13583 -8.94844 -5.67996 17.40326 4.39626 -13.26963 -27.05443 4.51132 -0.83061 -3.90867 -15.79028 33.96877 99.64154 74.95223 9.21832 -5.59 57.28353 27.41651 -56.36688 102.66287 -78.46712 21.06697 4.0735 86.51124 -14.8104 -11.18009 -94.9327 -8.8429 -4.75435 -3.28476 92.18432 18.83858 -0.08399 -97.13099 -8.88068 3.75371 2.72035
0.48134 -0.36698 -0.00126 -536.997 -8.98592 -5.65819 17.40529 4.59309 -13.09089 -26.56385 3.84676 -0.83061 -4.32983 -15.80696 33.90453 99.68056 75.07232 7.8232 -5.86001 57.64152 27.15914 -56.25319 102.08836 -76.42955 19.40503 4.5258 86.55782 -14.95328 -11.13568 -94.99725 -8.8453 -4.74698 -3.28036 92.22966 18.83079 0.05649 -97.16726 -8.85654 3.74112 2.71274
0.48116 -0.36698 -0.00105 -536.88279 -9.02217 -5.63785 17.40609 4.76467 -12.95744 -26.08486 3.22355 -0.83061 -4.68218 -15.79987 33.88739 99.67986 75.43469 6.50215 -6.07986 57.94111 27.04058 -56.14121 101.60859 -74.68167 17.97005 4.91378 86.60068 -15.07004 -11.09864 -95.05026 -8.84789 -4.74121 -3.27701 92.27106 18.8281 0.1749 -97.19594 -8.83635 3.73067 2.70632
0.48094 -0.36696 -0.00079 -536.769 -9.06825 -5.61996 17.41926 4.93027 -12.80511 -25.61736 2.66238 -0.83061 -5.0798 -15.83596 33.87823 99.70715 75.80576 4.94683 -6.21403 58.12705 26.94835 -56.0458 101.30156 -72.60699 16.46475 5.355 86.65168 -15.20408 -11.06946 -95.10846 -8.85014 -4.73428 -3.27295 92.323 18.8394 0.31047 -97.23056 -8.81244 3.71956 2.69942
0.4808 -0.36697 -0.00062 -536.64198 -9.09332 -5.59592 17.40556 5.12187 -12.67162 -25.11925 1.94483 -0.83061 -5.41257 -15.78826 33.82803 99.69394 76.00734 3.87255 -6.55812 58.58897 26.72719 -55.91489 100.57854 -71.09402 14.99992 5.71345 86.68665 -15.31401 -11.01971 -95.16116 -8.853 -4.72903 -3.26989 92.35376 18.81803 0.42012 -97.25603 -8.7947 3.70878 2.69294
0.48089 -0.36705 -0.00072 -536.48732 -9.05742 -5.55786 17.31731 5.37752 -12.6054 -24.54578 0.80112 -0.83061 -5.54245 -15.49736 33.67406 99.53897 75.99202 4.15126 -7.51256 59.81375 26.20159 -55.67345 98.64033 -71.30516 13.71386 5.80923 86.67343 -15.34415 -10.91499 -95.19404 -8.85766 -4.72899 -3.26998 92.32322 18.70335 0.44384 -97.25412 -8.79505 3.70014 2.68831
0.48106 -0.36716 -0.00092 -536.32216 -9.00085 -5.51357 17.20211 5.6563 -12.56268 -23.94307 -0.49139 -0.83061 -5.6013 -15.12099 33.48522 99.34233 75.79521 4.9154 -8.66224 61.30149 25.56122 -55.40114 96.31867 -72.07885 12.49496 5.82017 86.64423 -15.34874 -10.79106 -95.22045 -8.86293 -4.73073 -3.27113 92.27148 18.55783 0.44083 -97.2424 -8.80193 3.69195 2.68416
0.4812 -0.36725 -0.00107 -536.16483 -8.95591 -5.47102 17.09986 5.92034 -12.5137 -23.35342 -1.6998 -0.83062 -5.68744 -14.78565 33.3231 99.17244 75.59209 5.4514 -9.67687 62.63616 24.99059 -55.15166 94.26757 -72.5644 11.27154 5.87306 86.62417 -15.36615 -10.67824 -95.2492 -8.86785 -4.73171 -3.27185 92.23074 18.43163 0.45326 -97.23446 -8.80621 3.68343 2.67972
0.48134 -0.36736 -0.0012 -535.99261 -8.90176 -5.43279 16.99475 6.20413 -12.44266 -22.76302 -2.98181 -0.83062 -5.79853 -14.44244 33.11171 98.97303 75.74373 6.01808 -10.88729 64.11526 24.33626 -54.85892 91.80665 -73.20034 9.91171 5.9114 86.59666 -15.38024 -10.55464 -95.28122 -8.87301 -4.73241 -3.27234 92.1846 18.28274 0.45368 -97.2298 -8.80871 3.67523 2.6755
0.48147 -0.36743 -0.00142 -535.84967 -8.86155 -5.38427 16.88898 6.45167 -12.42461 -22.16829 -4.14456 -0.83062 -5.83989 -14.09467 32.99562 98.82316 75.12363 6.63577 -11.74062 65.35847 23.83119 -54.65616 90.10295 -73.62584 8.87127 5.96363 86.58045 -15.39439 -10.44922 -95.30464 -8.87787 -4.73412 -3.27354 92.14432 18.17357 0.47161 -97.21588 -8.81652 3.66658 2.67097
0.48154 -0.36741 -0.00189 -535.79027 -8.86787 -5.30774 16.7904 6.59176 -12.54559 -21.56352 -4.93895 -0.83062 -5.69825 -13.75662 33.15595 98.82898 72.38816 7.28515 -11.50376 65.84018 23.78169 -54.64438 90.65998 -73.67103 8.57851 6.02657 86.60259 -15.41602 -10.39884 -95.30543 -8.88147 -4.73855 -3.2766 92.1281 18.18612 0.54984 -97.17819 -8.83779 3.65643 2.66526
0.48158 -0.36734 -0.00245 -535.76107 -8.88843 -5.22131 16.69174 6.6946 -12.72006 -20.9563 -5.60844 -0.83062 -5.48942 -13.41652 33.41332 98.88403 68.89263 7.96728 -10.90962 66.0817 23.88304 -54.73288 91.97569 -73.43915 8.62488 6.11252 86.63617 -15.43809 -10.36757 -95.29775 -8.88481 -4.74388 -3.2803 92.11807 18.23923 0.6455 -97.13161 -8.86413 3.64587 2.65926
0.48163 -0.3673 -0.00297 -535.71808 -8.90045 -5.14014 16.59144 6.81525 -12.87124 -20.35415 -6.33572 -0.83062 -5.31619 -13.07622 33.62332 98.91051 65.76314 8.62885 -10.51645 66.46387 23.9095 -54.82268 92.90077 -73.09542 8.60102 6.22212 86.66223 -15.45911 -10.32748 -95.29413 -8.8885 -4.74859 -3.28358 92.10327 18.27062 0.72928 -97.08942 -8.88796 3.63566 2.65352
0.4817 -0.36726 -0.0035 -535.67447 -8.92022 -5.05547 16.49693 6.93293 -13.01798 -19.73532 -7.06234 -0.83062 -5.12033 -12.73762 33.84468 98.96195 62.52951 9.33267 -9.97107 66.72764 23.96699 -54.72807 94.02203 -73.71315 8.24266 6.19457 86.69704 -15.48313 -10.28701 -95.2894 -8.89127 -4.75427 -3.28744 92.09559 18.31379 0.82842 -97.04533 -8.91295 3.62481 2.64726
